:SAMPLES-PER-SECOND 30
:FULLY-SPECIFIED
:DEGREES
193
root  21.3074 32.4972 11.6151 -165.559 -10.5297 172.355
RightUpLeg  -9.96838 -10.9725 -43.8641
RightLeg  23.3636 -19.2874 -8.64423
RightFoot  3.78424 -7.31435 51.4238
RightToes  2.32829e-010 0 -3.6325e-017
Spine  16.8713 1.94262 3.93793
Spine1  0.787638 5.43715 -19.778
HEad  -19.2158 9.5677 -1.9368
LeftShoulder1  1.2594 -1.2638 -19.9577
LeftArm  31.2618 -11.8533 -57.1791
LeftForeArm  55.6112 -78.2271 -62.5523
LeftHand  -1.0803 -3.59281 14.1912
RightShoulder  0.553834 -0.204309 9.09347
RightArm  -44.1304 -24.2764 28.4029
RightForeArm  -12.4965 7.29473 2.56571
RightHand  -2.31243 4.99806 -25.7136
LeftUpLeg  -36.9002 0.559096 29.0495
LeftLeg  27.5121 -0.376944 0.154118
LeftFoot  3.95903 5.03193 -36.5643
LeftToes  -5.54824e-011 -8.71001e-011 8.3852e-012
194
root  22.9874 31.5144 12.6954 -166.991 -6.27469 172.071
RightUpLeg  -20.0744 -9.80002 -43.6494
RightLeg  35.8589 -9.86185 -7.82523
RightFoot  -6.52264 -2.5496 54.3514
RightToes  2.32829e-010 0 -3.6325e-017
Spine  22.0008 -0.475031 10.1279
Spine1  -0.812194 5.89945 -28.8095
HEad  -18.1283 11.7588 -4.29453
LeftShoulder1  1.31441 -1.1599 -21.7994
LeftArm  18.3799 2.918 -43.4696
LeftForeArm  90.8594 -79.3573 -99.6388
LeftHand  -1.07757 -2.83433 15.3656
RightShoulder  0.046223 -2.81557 -0.469091
RightArm  -45.071 1.6055 18.2629
RightForeArm  -11.6799 12.8918 3.90963
RightHand  -2.48137 5.16194 -27.0737
LeftUpLeg  -37.393 0.720741 28.628
LeftLeg  36.9614 2.42463 2.41958
LeftFoot  -2.3284 3.16947 -38.4527
LeftToes  -5.54824e-011 -8.71001e-011 8.3852e-012
195
root  24.3131 30.6666 13.5686 -167.592 -0.617221 172.48
RightUpLeg  -30.6609 -6.2963 -42.9987
RightLeg  45.5389 -4.53659 -5.33304
RightFoot  -11.3134 -0.0946395 54.2937
RightToes  2.32829e-010 0 -3.6325e-017
Spine  25.3212 -3.17778 16.6221
Spine1  -1.28856 6.53287 -36.8201
HEad  -17.2766 13.9604 -7.33647
LeftShoulder1  1.48229 -1.68285 -22.2743
LeftArm  10.248 18.8334 -37.3356
LeftForeArm  117.573 -77.1804 -125.97
LeftHand  -0.98298 -2.98293 13.8539
RightShoulder  0.0167104 -4.31068 -11.4299
RightArm  -48.7975 23.644 7.20488
RightForeArm  -12.2391 20.1738 5.40397
RightHand  -2.69633 5.49062 -28.4956
LeftUpLeg  -36.7208 1.78159 29.4872
LeftLeg  44.2657 7.59945 8.22629
LeftFoot  -3.61825 2.60246 -37.0694
LeftToes  -5.54824e-011 -8.71001e-011 8.3852e-012
196
root  25.3626 30.2854 14.0148 -166.516 3.54466 172.378
RightUpLeg  -38.3224 -4.36113 -42.5309
RightLeg  50.8024 -2.89047 -4.18957
RightFoot  -13.0901 0.806246 54.4528
RightToes  2.32829e-010 0 -3.6325e-017
Spine  27.019 -4.53582 23.0603
Spine1  -0.618831 8.80674 -43.7036
HEad  -16.9974 14.7276 -7.32556
LeftShoulder1  1.49333 -2.01028 -20.6419
LeftArm  9.42464 28.6304 -38.634
LeftForeArm  132.172 -75.2687 -136.455
LeftHand  -0.939131 -4.22507 11.5963
RightShoulder  0.344172 -6.60031 -21.6323
RightArm  -63.5242 33.7905 -6.67837
RightForeArm  -7.53433 25.3508 5.76337
RightHand  -2.42191 5.26091 -26.2091
LeftUpLeg  -36.2273 1.70315 30.2356
LeftLeg  46.8589 12.2632 13.9892
LeftFoot  -1.58151 2.93709 -33.4137
LeftToes  -5.54824e-011 -8.71001e-011 8.3852e-012
197
root  26.2142 30.2597 14.1606 -165.43 4.13595 170.955
RightUpLeg  -41.337 -4.31626 -43.027
RightLeg  53.784 -2.85389 -4.57467
RightFoot  -14.0398 1.30505 55.0867
RightToes  2.32829e-010 0 -3.6325e-017
Spine  28.0843 -4.2468 25.2427
Spine1  0.381935 10.424 -43.6537
HEad  -16.1985 15.5366 -5.26491
LeftShoulder1  1.38835 -1.87818 -19.2828
LeftArm  12.574 32.6145 -42.6927
LeftForeArm  142.866 -74.2864 -141.228
LeftHand  -0.916835 -5.21492 10.3139
RightShoulder  1.08949 -10.2167 -27.9882
RightArm  -80.0019 38.9304 -15.3338
RightForeArm  -0.890777 28.419 6.19861
RightHand  -2.10303 4.90775 -23.6924
LeftUpLeg  -36.4342 -1.69963 30.228
LeftLeg  45.4452 15.3371 16.4318
LeftFoot  0.682266 3.17516 -29.5437
LeftToes  -5.54824e-011 -8.71001e-011 8.3852e-012
198
root  26.851 30.3502 14.1914 -165.806 1.86564 168.994
RightUpLeg  -40.5875 -4.34981 -44.2652
RightLeg  56.4756 -2.96397 -5.24228
RightFoot  -14.1661 1.39025 55.7527
RightToes  2.32829e-010 0 -3.6325e-017
Spine  28.9224 -3.60506 23.0014
Spine1  0.851264 9.45023 -37.098
HEad  -14.7788 16.8509 -3.9157
LeftShoulder1  1.42937 -2.16174 -18.6785
LeftArm  15.1181 33.955 -46.6018
LeftForeArm  149.129 -74.3642 -142.157
LeftHand  -0.864521 -5.47705 9.53289
RightShoulder  1.62037 -12.9823 -28.8811
RightArm  -85.3433 44.8608 -16.4668
RightForeArm  4.33497 32.2961 6.88967
RightHand  -2.15805 5.37534 -23.2562
LeftUpLeg  -36.7322 -6.02289 29.7424
LeftLeg  43.0811 17.2998 16.9486
LeftFoot  3.77464 3.43592 -25.7376
LeftToes  -5.54824e-011 -8.71001e-011 8.3852e-012
199
root  27.3 30.5758 14.142 -166.989 -0.588733 168.001
RightUpLeg  -38.4979 -2.86254 -44.7777
RightLeg  58.1684 -3.39879 -6.34768
RightFoot  -13.2619 0.938205 56.6474
RightToes  2.32829e-010 0 -3.6325e-017
Spine  28.8287 -3.4207 19.9041
Spine1  1.70973 7.63663 -30.5951
HEad  -14.0035 17.6788 -4.26472
LeftShoulder1  1.5569 -2.81442 -18.0416
LeftArm  15.9532 32.5425 -47.8069
LeftForeArm  148.829 -75.4389 -139.231
LeftHand  -0.769943 -5.62108 8.4265
RightShoulder  1.28477 -12.4856 -25.5739
RightArm  -75.9291 48.0501 -10.8061
RightForeArm  8.82095 37.3502 8.03165
RightHand  -2.28323 6.00272 -23.2599
LeftUpLeg  -36.555 -6.56132 28.7361
LeftLeg  41.8964 18.4115 17.2438
LeftFoot  9.01893 3.68708 -20.7292
LeftToes  -5.54824e-011 -8.71001e-011 8.3852e-012
200
root  27.5229 31.0336 13.9533 -168.158 -2.47593 167.474
RightUpLeg  -35.2761 -0.49815 -44.7247
RightLeg  57.4081 -4.7431 -8.36519
RightFoot  -12.1503 0.362556 58.0973
RightToes  2.32829e-010 0 -3.6325e-017
Spine  27.8008 -3.95247 17.7859
Spine1  3.6814 6.16879 -27.6199
HEad  -14.6433 17.2244 -5.81494
LeftShoulder1  1.56668 -3.00227 -17.4315
LeftArm  16.403 28.2403 -46.0516
LeftForeArm  141.944 -76.8199 -133.286
LeftHand  -0.618515 -5.38699 6.95949
RightShoulder  0.603312 -9.85985 -20.2821
RightArm  -60.9851 46.5432 1.05744
RightForeArm  13.582 43.1204 9.58538
RightHand  -2.32516 6.27835 -23.1343
LeftUpLeg  -36.7254 -3.59195 26.2098
LeftLeg  42.2632 17.3987 16.5787
LeftFoot  13.6485 3.34167 -15.3168
LeftToes  -5.54824e-011 -8.71001e-011 8.3852e-012
201
root  27.5233 31.6456 13.6183 -168.587 -3.73824 167.207
RightUpLeg  -31.7084 2.13344 -44.3219
RightLeg  54.5539 -7.05672 -10.8953
RightFoot  -11.1334 -0.197561 59.6197
RightToes  2.32829e-010 0 -3.6325e-017
Spine  26.3231 -3.90488 15.2203
Spine1  5.79955 5.17347 -25.0232
HEad  -16.2537 15.5555 -7.99546
LeftShoulder1  1.46565 -2.66058 -17.1046
LeftArm  16.2264 23.4437 -44.6103
LeftForeArm  133.659 -77.7688 -127.327
LeftHand  -0.426223 -4.13799 5.45997
RightShoulder  0.149452 -7.61935 -13.7297
RightArm  -49.3336 42.0555 15.7024
RightForeArm  15.2773 48.845 11.7178
RightHand  -2.38204 6.46552 -23.3228
LeftUpLeg  -38.1668 1.38441 22.437
LeftLeg  43.7764 12.8954 13.2428
LeftFoot  13.8574 2.80919 -12.8765
LeftToes  -5.54824e-011 -8.71001e-011 8.3852e-012
202
root  27.2066 32.3289 13.1945 -168.819 -5.29874 167.178
RightUpLeg  -27.184 3.86773 -43.8547
RightLeg  50.1497 -9.70388 -12.5488
RightFoot  -9.41322 -1.18187 60.2501
RightToes  2.32829e-010 0 -3.6325e-017
Spine  24.968 -3.44226 11.7814
Spine1  7.62312 3.73265 -20.3056
HEad  -18.1278 13.3746 -10.2312
LeftShoulder1  1.33993 -2.14728 -17.0301
LeftArm  15.4661 20.0912 -44.9965
LeftForeArm  131.65 -77.9383 -125.944
LeftHand  -0.290898 -2.68448 4.42426
RightShoulder  -0.060342 -5.65408 -6.09641
RightArm  -41.0501 35.2615 27.4186
RightForeArm  12.5391 54.0496 14.569
RightHand  -2.35115 6.49891 -22.9662
LeftUpLeg  -40.362 5.51561 17.9123
LeftLeg  45.5071 6.88203 7.86214
LeftFoot  9.54879 2.81435 -15.6328
LeftToes  -5.54824e-011 -8.71001e-011 8.3852e-012
203
root  26.5503 33.148 12.7121 -169.11 -6.88723 167.925
RightUpLeg  -21.7824 3.56539 -42.7967
RightLeg  43.6593 -12.4997 -12.7394
RightFoot  -5.85185 -3.15297 59.2928
RightToes  2.32829e-010 0 -3.6325e-017
Spine  23.5443 -3.27804 9.46976
Spine1  9.6243 2.21473 -15.5849
HEad  -19.8916 11.4933 -11.806
LeftShoulder1  1.17228 -1.44439 -17.0034
LeftArm  15.3552 17.6563 -46.2849
LeftForeArm  135.251 -77.5606 -128.664
LeftHand  -0.312639 -2.32864 4.89759
RightShoulder  0.0132369 -3.3655 1.61651
RightArm  -33.5867 26.3653 33.8927
RightForeArm  10.8211 58.8244 17.9634
RightHand  -2.22572 6.26599 -22.2078
LeftUpLeg  -41.8133 8.0283 13.4726
LeftLeg  45.1704 1.50019 2.08722
LeftFoot  3.4597 2.90028 -22.3445
LeftToes  -5.54824e-011 -8.71001e-011 8.3852e-012
204
root  25.641 34.1114 12.1804 -169.031 -7.51588 169.426
RightUpLeg  -16.6077 0.549333 -41.3697
RightLeg  34.7052 -15.2484 -11.3184
RightFoot  0.192547 -6.21105 56.6894
RightToes  2.32829e-010 0 -3.6325e-017
Spine  22.1744 -3.22307 8.43682
Spine1  11.2749 1.22376 -12.2665
HEad  -21.4223 10.4383 -12.4965
LeftShoulder1  0.997076 -0.699006 -17.0342
LeftArm  16.2046 15.8697 -47.9436
LeftForeArm  137.472 -77.1425 -130.994
LeftHand  -0.535174 -2.92238 7.66251
RightShoulder  0.275162 -1.67943 8.00494
RightArm  -26.0522 16.6372 38.4219
RightForeArm  11.6043 63.5123 22.2901
RightHand  -2.15704 5.99454 -22.0405
LeftUpLeg  -42.2567 9.17138 9.55251
LeftLeg  41.938 -4.39001 -3.75624
LeftFoot  -1.74814 2.48249 -28.7554
LeftToes  -5.54824e-011 -8.71001e-011 8.3852e-012
205
root  24.5396 34.9983 11.6186 -168.284 -6.38234 171.443
RightUpLeg  -13.2124 -3.80463 -40.1586
RightLeg  24.6487 -17.2266 -8.51466
RightFoot  8.9648 -9.98637 52.5108
RightToes  2.32829e-010 0 -3.6325e-017
Spine  21.2359 -2.48912 6.86527
Spine1  11.6176 0.658365 -8.59619
HEad  -22.8891 10.1956 -12.6426
LeftShoulder1  0.915861 -0.344036 -17.1135
LeftArm  17.0861 15.659 -50.2541
LeftForeArm  136.968 -76.788 -132.252
LeftHand  -0.893251 -3.54333 11.8403
RightShoulder  0.466438 -1.06695 12.2796
RightArm  -19.5326 7.59879 43.28
RightForeArm  11.2569 67.68 28.083
RightHand  -2.04623 5.5573 -21.7448
LeftUpLeg  -42.7775 8.52275 6.92639
LeftLeg  38.7977 -10.7278 -8.81709
LeftFoot  -4.80682 1.75322 -29.3815
LeftToes  -5.54824e-011 -8.71001e-011 8.3852e-012
206
root  23.3174 35.6151 11.0355 -167.424 -3.52469 174.004
RightUpLeg  -11.9829 -9.096 -38.0892
RightLeg  14.997 -15.8571 -6.05321
RightFoot  20.1802 -13.5759 46.3587
RightToes  2.32829e-010 0 -3.6325e-017
Spine  20.4511 -1.08712 4.33698
Spine1  11.5366 0.417902 -4.20673
HEad  -24.4075 10.5098 -12.3007
LeftShoulder1  0.919459 -0.356293 -17.1324
LeftArm  17.8107 16.3871 -52.8008
LeftForeArm  136.708 -76.1884 -134.358
LeftHand  -1.22822 -3.84901 15.6476
RightShoulder  0.60928 -0.677925 14.8387
RightArm  -14.9064 -0.47562 47.7699
RightForeArm  11.4207 71.0156 35.1813
RightHand  -1.77383 4.84858 -20.1825
LeftUpLeg  -43.8866 6.0085 6.36566
LeftLeg  38.9118 -11.9337 -9.78161
LeftFoot  -5.7636 1.08776 -21.5157
LeftToes  -5.54824e-011 -8.71001e-011 8.3852e-012
207
root  22.0663 35.8486 10.4384 -167.582 0.363828 177.052
RightUpLeg  -11.5444 -18.5702 -33.7188
RightLeg  6.06159 -7.15106 -5.49024
RightFoot  30.7266 -15.3318 39.1528
RightToes  2.32829e-010 0 -3.6325e-017
Spine  19.4432 0.223987 2.10132
Spine1  12.7158 0.662467 -1.21264
HEad  -25.4296 11.5591 -11.409
LeftShoulder1  0.909698 -0.274899 -17.4169
LeftArm  19.2262 15.7596 -54.3398
LeftForeArm  135.423 -75.7441 -135.608
LeftHand  -1.46148 -3.94958 18.3203
RightShoulder  0.798577 -0.0501393 16.5518
RightArm  -11.901 -8.06693 51.1594
RightForeArm  18.157 74.0169 44.1494
RightHand  -1.40533 4.08028 -17.36
LeftUpLeg  -44.2813 3.5381 7.25146
LeftLeg  42.2121 -5.59294 -4.91478
LeftFoot  -6.7077 0.501055 -11.1256
LeftToes  -5.54824e-011 -8.71001e-011 8.3852e-012
